<svg width="400" height="300" viewBox="0 0 400 300" fill="none" xmlns="http://www.w3.org/2000/svg">
  <!-- Stylized Phone -->
  <rect x="100" y="50" width="130" height="240" rx="15" fill="#1A1A1A" />
  <rect x="110" y="65" width="110" height="210" rx="5" fill="#FFFFFF" />
  <rect x="110" y="65" width="110" height="25" rx="5" fill="#0d7490" />
  <circle cx="165" cy="55" r="5" fill="#FFFFFF" />
  
  <!-- Al Saqi Card on Phone -->
  <rect x="130" y="100" width="70" height="45" rx="5" fill="#0d7490" />
  <circle cx="145" cy="120" r="10" fill="#FFFFFF" opacity="0.2" />
  <rect x="160" y="110" width="30" height="5" rx="2" fill="#FFFFFF" opacity="0.5" />
  <rect x="160" y="120" width="30" height="5" rx="2" fill="#FFFFFF" opacity="0.5" />
  <rect x="160" y="130" width="20" height="5" rx="2" fill="#FFFFFF" opacity="0.5" />
  
  <!-- Menu Items -->
  <rect x="130" y="155" width="70" height="10" rx="5" fill="#F0F0F0" />
  <rect x="130" y="175" width="70" height="10" rx="5" fill="#F0F0F0" />
  <rect x="130" y="195" width="70" height="10" rx="5" fill="#F0F0F0" />
  <rect x="130" y="215" width="70" height="10" rx="5" fill="#F0F0F0" />
  <rect x="130" y="235" width="70" height="10" rx="5" fill="#F0F0F0" />
  
  <!-- POS Device -->
  <g transform="translate(230, 120) rotate(10)">
    <rect x="0" y="0" width="100" height="150" rx="10" fill="#FF6B00" />
    <rect x="0" y="40" width="100" height="110" rx="5" fill="#1A1A1A" />
    <rect x="10" y="50" width="80" height="40" rx="2" fill="#0d7490" />
    <rect x="10" y="100" width="80" height="10" rx="2" fill="#FFFFFF" opacity="0.3" />
    <rect x="10" y="120" width="80" height="10" rx="2" fill="#FFFFFF" opacity="0.3" />
    <circle cx="50" cy="20" r="10" fill="#FFFFFF" opacity="0.2" />
    <circle cx="50" cy="20" r="5" fill="#FFFFFF" opacity="0.5" />
  </g>
</svg>